# xmcd CD database file
#
# Track frame offsets:
#	150
#	17458
#	39078
#	61851
#	80870
#	99552
#	120479
#	138659
#	156364
#	176042
#	195417
#	213878
#	236096
#	251474
#	275283
#	297718
#	318192
#	335913
#
# Disc length: 4751 seconds
#
# Revision: 0
# Processed by: cddbd v1.5.1PL2 Copyright (c) Steve Scherf et al.
# Submitted via: ACXtractor (MTCDDB.DLL V2003.12.21)
#
DISCID=04128d12
DTITLE=周杰伦 - 11月的萧邦
DYEAR=2005
DGENRE=R&B
TTITLE0=夜曲
TTITLE1=蓝色风暴
TTITLE2=发如雪
TTITLE3=黑色毛衣
TTITLE4=四面楚歌
TTITLE5=枫
TTITLE6=浪漫手机
TTITLE7=逆鳞
TTITLE8=麦芽糖
TTITLE9=珊瑚海
TTITLE10=飘移
TTITLE11=一路向北
TTITLE12=双截棍
TTITLE13=东风破
TTITLE14=七里香
TTITLE15=简单爱
TTITLE16=爱在西元前
TTITLE17=龙拳
EXTD=ID3G:  14 YEAR: 2005
EXTT0=
EXTT1=
EXTT2=
EXTT3=
EXTT4=
EXTT5=
EXTT6=
EXTT7=
EXTT8=
EXTT9=
EXTT10=
EXTT11=
EXTT12=
EXTT13=
EXTT14=
EXTT15=
EXTT16=
EXTT17=
PLAYORDER=
